# xmcd
#
# Track frame offsets:
#	150
#	19257
#	42030
#	60612
#	81750
#	97070
#	114932
#	138187
#	166480
#	186532
#	212037
#	234290
#
# Disc length: 3593 seconds
#
# Revision: 1
# Processed by: cddbd v1.5.2PL0 Copyright (c) Steve Scherf et al.
# Submitted via: dBpowerAMP V4.0
#
DISCID=9d0e070c
DTITLE=Chara - Before Dawn
DYEAR=2003
DGENRE=J-Pop
TTITLE0=BEAUTIFUL DAY
TTITLE1=Mieruwa
TTITLE2=Sweety
TTITLE3=Hatsukoi
TTITLE4=Shinpi No Ie
TTITLE5=Utsukushii Machi
TTITLE6=Heart No Hi Wo Tsukete
TTITLE7=Hello
TTITLE8=Ocean
TTITLE9=Kokoro Ni Nai
TTITLE10=Beautiful Scarlet
TTITLE11=I Wanna Freely Love You
EXTD=
EXTT0=
EXTT1=
EXTT2=
EXTT3=
EXTT4=
EXTT5=
EXTT6=
EXTT7=
EXTT8=
EXTT9=
EXTT10=
EXTT11=
PLAYORDER=
